<svg xmlns="http://www.w3.org/2000/svg" viewBox="0 0 70 69">
  <g fill="hsl(335, 77%, 50%)">
    <circle cx="40" cy="33" r="1.5" opacity=".38" />
    <circle cx="39" cy="37" r="1.5" opacity=".22" />
    <circle cx="36" cy="39" r="1.5" opacity=".86" />
    <circle cx="32" cy="39" r="1.5" opacity=".87" />
    <circle cx="28" cy="36" r="2" opacity=".27" />
    <circle cx="27" cy="31" r="2" opacity=".34" />
    <circle cx="30" cy="26" r="2" opacity=".64" />
    <circle cx="35" cy="23" r="2" opacity=".57" />
    <circle cx="42" cy="25" r="2" opacity=".26" />
    <circle cx="46" cy="31" r="2" opacity=".38" />
    <circle cx="45" cy="39" r="2" opacity=".41" />
    <circle cx="40" cy="45" r="2" opacity=".57" />
    <circle cx="31" cy="46" r="2" opacity=".85" />
    <circle cx="23" cy="41" r="2" opacity=".86" />
    <circle cx="21" cy="32" r="2" opacity=".61" />
    <circle cx="24" cy="22" r="2" opacity=".75" />
    <circle cx="33" cy="17" r="2" opacity=".9" />
    <circle cx="44" cy="19" r="2" opacity=".83" />
    <circle cx="51" cy="27" r="2" opacity=".79" />
    <circle cx="52" cy="39" r="2.5" opacity=".34" />
    <circle cx="45" cy="49" r="2.5" opacity=".67" />
    <circle cx="32" cy="52" r="2.5" opacity=".45" />
    <circle cx="20" cy="47" r="2.5" opacity=".45" />
    <circle cx="14" cy="34" r="2.5" opacity=".9" />
    <circle cx="18" cy="21" r="2.5" opacity=".72" />
    <circle cx="29" cy="12" r="2.5" opacity=".21" />
    <circle cx="44" cy="12" r="2.5" opacity=".25" />
    <circle cx="56" cy="22" r="2.5" opacity=".44" />
    <circle cx="59" cy="38" r="2.5" opacity=".39" />
    <circle cx="51" cy="52" r="2.5" opacity=".88" />
    <circle cx="36" cy="58" r="2.5" opacity=".66" />
    <circle cx="19" cy="54" r="2.5" opacity=".45" />
    <circle cx="9" cy="39" r="2.5" opacity=".36" />
    <circle cx="10" cy="21" r="2.5" opacity=".62" />
    <circle cx="23" cy="8" r="3" opacity=".62" />
    <circle cx="42" cy="5" r="3" opacity=".17" />
    <circle cx="58" cy="15" r="3" opacity=".14" />
    <circle cx="65" cy="34" r="3" opacity=".82" />
    <circle cx="58" cy="53" r="3" opacity=".27" />
    <circle cx="41" cy="64" r="3" opacity=".74" />
    <circle cx="20" cy="61" r="3" opacity=".25" />
    <circle cx="5" cy="46" r="3" opacity=".6" />
  </g>
</svg>